<svg version="1.1" viewBox="0.0 0.0 960.0 540.0" fill="none" stroke="none" stroke-linecap="square" stroke-miterlimit="10" xmlns:xlink="http://www.w3.org/1999/xlink" xmlns="http://www.w3.org/2000/svg"><clipPath id="g33b37f11d99_0_0.0"><path d="m0 0l960.0 0l0 540.0l-960.0 0l0 -540.0z" clip-rule="nonzero"/></clipPath><g clip-path="url(#g33b37f11d99_0_0.0)"><path fill="#ffffff" d="m0 0l960.0 0l0 540.0l-960.0 0z" fill-rule="evenodd"/><path fill="#000000" fill-opacity="0.0" d="m153.53247 275.2752l3.4251862 -6.8503723l8.960632 0l3.4252014 6.8503723l-3.4252014 6.850403l-8.960632 0z" fill-rule="evenodd"/><path stroke="#059b9a" stroke-width="4.0" stroke-linejoin="round" stroke-linecap="butt" d="m153.53247 275.2752l3.4251862 -6.8503723l8.960632 0l3.4252014 6.8503723l-3.4252014 6.850403l-8.960632 0z" fill-rule="evenodd"/><path fill="#000000" fill-opacity="0.0" d="m89.385826 341.94644l3.4251938 -6.850403l8.960632 0l3.4251938 6.850403l-3.4251938 6.850403l-8.960632 0z" fill-rule="evenodd"/><path stroke="#059b9a" stroke-width="4.0" stroke-linejoin="round" stroke-linecap="butt" d="m89.385826 341.94644l3.4251938 -6.850403l8.960632 0l3.4251938 6.850403l-3.4251938 6.850403l-8.960632 0z" fill-rule="evenodd"/><path fill="#000000" fill-opacity="0.0" d="m41.028885 318.14172c12.089272 0 18.135239 5.952759 24.178543 11.905518c6.043312 5.952759 12.083954 11.905518 24.167915 11.905518" fill-rule="evenodd"/><path stroke="#059b9a" stroke-width="1.0" stroke-linejoin="round" stroke-linecap="butt" stroke-dasharray="4.0,3.0" d="m41.028885 318.14172c12.089272 0 18.135239 5.952759 24.178543 11.905518c6.043312 5.952759 12.083954 11.905518 24.167915 11.905518" fill-rule="evenodd"/><path fill="#000000" fill-opacity="0.0" d="m105.196846 341.94644c12.0839615 0 18.124603 -16.669281 24.167915 -33.338593c6.0433044 -16.669281 12.089264 -33.338562 24.178543 -33.338562" fill-rule="evenodd"/><path stroke="#059b9a" stroke-width="1.0" stroke-linejoin="round" stroke-linecap="butt" stroke-dasharray="4.0,3.0" d="m105.196846 341.94644c12.0839615 0 18.124603 -16.669281 24.167915 -33.338593c6.0433044 -16.669281 12.089264 -33.338562 24.178543 -33.338562" fill-rule="evenodd"/><path fill="#000000" fill-opacity="0.0" d="m169.34349 275.2752c25.433075 0 38.149597 8.456696 50.866135 16.913391c12.716537 8.456696 25.433075 16.913391 50.86615 16.913391" fill-rule="evenodd"/><path stroke="#059b9a" stroke-width="1.0" stroke-linejoin="round" stroke-linecap="butt" stroke-dasharray="4.0,3.0" d="m169.34349 275.2752c25.433075 0 38.149597 8.456696 50.866135 16.913391c12.716537 8.456696 25.433075 16.913391 50.86615 16.913391" fill-rule="evenodd"/><path fill="#000000" fill-opacity="0.0" d="m286.8748 309.1072c34.47754 0 51.714935 -4.1732483 68.95511 -8.346466c17.240143 -4.173218 34.483063 -8.346466 68.966125 -8.346466" fill-rule="evenodd"/><path stroke="#059b9a" stroke-width="1.0" stroke-linejoin="round" stroke-linecap="butt" stroke-dasharray="4.0,3.0" d="m286.8748 309.1072c34.47754 0 51.714935 -4.1732483 68.95511 -8.346466c17.240143 -4.173218 34.483063 -8.346466 68.966125 -8.346466" fill-rule="evenodd"/><path fill="#000000" fill-opacity="0.0" d="m440.59604 292.42114c38.51657 0 58.52185 -4.8813477 77.03311 -10.173279c18.511292 -5.291931 35.528503 -10.994415 58.92206 -10.173279c23.393494 0.821167 53.16327 8.165955 58.921997 15.921295c5.758667 7.755371 -12.493713 15.921326 -24.987366 15.921326" fill-rule="evenodd"/><path stroke="#059b9a" stroke-width="1.0" stroke-linejoin="round" stroke-linecap="butt" stroke-dasharray="4.0,3.0" d="m440.59604 292.42114c38.51657 0 58.52185 -4.8813477 77.03311 -10.173279c18.511292 -5.291931 35.528503 -10.994415 58.92206 -10.173279c23.393494 0.821167 53.16327 8.165955 58.921997 15.921295c5.758667 7.755371 -12.493713 15.921326 -24.987366 15.921326" fill-rule="evenodd"/><path fill="#000000" fill-opacity="0.0" d="m594.66205 303.92502c-12.500183 0 -27.512207 8.384399 -25.000366 15.925171c2.5118408 7.540741 22.547546 14.237854 38.73059 15.92514c16.183044 1.6872864 28.513489 -1.6352539 38.73059 -4.1141357c10.217041 -2.4788818 18.32074 -4.1141357 36.64154 -4.1141357" fill-rule="evenodd"/><path stroke="#059b9a" stroke-width="1.0" stroke-linejoin="round" stroke-linecap="butt" stroke-dasharray="4.0,3.0" d="m594.66205 303.92502c-12.500183 0 -27.512207 8.384399 -25.000366 15.925171c2.5118408 7.540741 22.547546 14.237854 38.73059 15.92514c16.183044 1.6872864 28.513489 -1.6352539 38.73059 -4.1141357c10.217041 -2.4788818 18.32074 -4.1141357 36.64154 -4.1141357" fill-rule="evenodd"/><path fill="#000000" fill-opacity="0.0" d="m699.5932 327.5433c48.795227 0 73.19287 -14.385834 97.590515 -28.771637c24.397644 -14.385834 48.795288 -28.771667 97.590576 -28.771667" fill-rule="evenodd"/><path stroke="#059b9a" stroke-width="1.0" stroke-linejoin="round" stroke-linecap="butt" stroke-dasharray="4.0,3.0" d="m699.5932 327.5433c48.795227 0 73.19287 -14.385834 97.590515 -28.771637c24.397644 -14.385834 48.795288 -28.771667 97.590576 -28.771667" fill-rule="evenodd"/><path fill="#000000" fill-opacity="0.0" d="m894.7743 262.14172l42.078735 0l0 15.716553l-42.078735 0z" fill-rule="evenodd"/><path fill="#059b9a" d="m900.36804 271.5886q-0.453125 0 -0.796875 -0.1875q-0.328125 -0.203125 -0.53125 -0.609375q-0.1875 -0.421875 -0.1875 -1.046875q0 -0.625 0.171875 -1.03125q0.1875 -0.40625 0.53125 -0.609375q0.34375 -0.203125 0.8125 -0.203125q0.515625 0 0.90625 0.234375q0.40625 0.234375 0.640625 0.65625q0.234375 0.40625 0.234375 0.953125q0 0.578125 -0.234375 0.984375q-0.234375 0.40625 -0.640625 0.640625q-0.390625 0.21875 -0.90625 0.21875zm-2.109375 1.25l0 -4.875l0.984375 0l0 0.734375l-0.015625 1.0625l0.0625 1.0625l0 2.015625l-1.03125 0zm1.9375 -2.09375q0.25 0 0.453125 -0.109375q0.203125 -0.125 0.328125 -0.34375q0.125 -0.234375 0.125 -0.546875q0 -0.3125 -0.125 -0.53125q-0.125 -0.21875 -0.328125 -0.328125q-0.203125 -0.125 -0.453125 -0.125q-0.265625 0 -0.46875 0.125q-0.203125 0.109375 -0.328125 0.328125q-0.125 0.21875 -0.125 0.53125q0 0.3125 0.125 0.546875q0.125 0.21875 0.328125 0.34375q0.203125 0.109375 0.46875 0.109375zm2.6552734 0.796875l0 -3.578125l0.984375 0l0 1.015625l-0.140625 -0.296875q0.15625 -0.375 0.515625 -0.578125q0.359375 -0.203125 0.859375 -0.203125l0 0.96875q-0.0625 -0.015625 -0.125 -0.015625q-0.046875 0 -0.109375 0q-0.421875 0 -0.6875 0.25q-0.265625 0.234375 -0.265625 0.75l0 1.6875l-1.03125 0zm4.511902 0.046875q-0.578125 0 -1.03125 -0.234375q-0.4375 -0.234375 -0.6875 -0.65625q-0.25 -0.421875 -0.25 -0.953125q0 -0.53125 0.25 -0.9375q0.25 -0.421875 0.6875 -0.65625q0.453125 -0.25 1.03125 -0.25q0.5625 0 1.0 0.25q0.453125 0.234375 0.703125 0.640625q0.25 0.40625 0.25 0.953125q0 0.53125 -0.25 0.953125q-0.25 0.421875 -0.703125 0.65625q-0.4375 0.234375 -1.0 0.234375zm0 -0.84375q0.25 0 0.453125 -0.109375q0.21875 -0.125 0.328125 -0.34375q0.125 -0.234375 0.125 -0.546875q0 -0.3125 -0.125 -0.53125q-0.109375 -0.21875 -0.328125 -0.328125q-0.203125 -0.125 -0.453125 -0.125q-0.265625 0 -0.46875 0.125q-0.203125 0.109375 -0.328125 0.328125q-0.125 0.21875 -0.125 0.53125q0 0.3125 0.125 0.546875q0.125 0.21875 0.328125 0.34375q0.203125 0.109375 0.46875 0.109375zm4.3285522 2.140625q-0.5 0 -0.96875 -0.125q-0.46875 -0.125 -0.78125 -0.359375l0.40625 -0.75q0.234375 0.1875 0.578125 0.296875q0.359375 0.109375 0.6875 0.109375q0.5625 0 0.8125 -0.25q0.25 -0.25 0.25 -0.734375l0 -0.53125l0.0625 -0.90625l-0.015625 -0.90625l0 -0.765625l0.984375 0l0 2.984375q0 1.0 -0.515625 1.46875q-0.515625 0.46875 -1.5 0.46875zm-0.15625 -1.515625q-0.5 0 -0.90625 -0.21875q-0.390625 -0.21875 -0.640625 -0.609375q-0.234375 -0.390625 -0.234375 -0.90625q0 -0.515625 0.234375 -0.90625q0.25 -0.390625 0.640625 -0.609375q0.40625 -0.21875 0.90625 -0.21875q0.453125 0 0.796875 0.1875q0.34375 0.1875 0.53125 0.578125q0.203125 0.375 0.203125 0.96875q0 0.59375 -0.203125 0.984375q-0.1875 0.375 -0.53125 0.5625q-0.34375 0.1875 -0.796875 0.1875zm0.203125 -0.859375q0.28125 0 0.484375 -0.109375q0.21875 -0.109375 0.328125 -0.296875q0.125 -0.203125 0.125 -0.46875q0 -0.265625 -0.125 -0.453125q-0.109375 -0.203125 -0.328125 -0.3125q-0.203125 -0.109375 -0.484375 -0.109375q-0.265625 0 -0.484375 0.109375q-0.203125 0.109375 -0.328125 0.3125q-0.125 0.1875 -0.125 0.453125q0 0.265625 0.125 0.46875q0.125 0.1875 0.328125 0.296875q0.21875 0.109375 0.484375 0.109375zm2.9405518 1.03125l0 -3.578125l0.984375 0l0 1.015625l-0.140625 -0.296875q0.15625 -0.375 0.515625 -0.578125q0.359375 -0.203125 0.859375 -0.203125l0 0.96875q-0.0625 -0.015625 -0.125 -0.015625q-0.046875 0 -0.109375 0q-0.421875 0 -0.6875 0.25q-0.265625 0.234375 -0.265625 0.75l0 1.6875l-1.03125 0zm4.574463 0.046875q-0.609375 0 -1.078125 -0.234375q-0.453125 -0.234375 -0.703125 -0.65625q-0.25 -0.421875 -0.25 -0.953125q0 -0.53125 0.25 -0.9375q0.25 -0.421875 0.671875 -0.65625q0.4375 -0.25 0.984375 -0.25q0.53125 0 0.953125 0.234375q0.421875 0.21875 0.65625 0.640625q0.25 0.40625 0.25 0.984375q0 0.0625 -0.015625 0.140625q0 0.078125 0 0.140625l-2.90625 0l0 -0.609375l2.359375 0l-0.40625 0.1875q0 -0.28125 -0.109375 -0.484375q-0.109375 -0.203125 -0.3125 -0.3125q-0.203125 -0.125 -0.46875 -0.125q-0.265625 0 -0.46875 0.125q-0.203125 0.109375 -0.3125 0.3125q-0.109375 0.203125 -0.109375 0.5l0 0.15625q0 0.296875 0.125 0.515625q0.125 0.21875 0.359375 0.34375q0.25 0.109375 0.5625 0.109375q0.28125 0 0.5 -0.078125q0.21875 -0.09375 0.40625 -0.265625l0.546875 0.59375q-0.25 0.28125 -0.625 0.4375q-0.359375 0.140625 -0.859375 0.140625zm3.6375122 0q-0.46875 0 -0.890625 -0.109375q-0.421875 -0.109375 -0.65625 -0.265625l0.34375 -0.75q0.234375 0.15625 0.5625 0.25q0.34375 0.09375 0.671875 0.09375q0.359375 0 0.515625 -0.078125q0.15625 -0.09375 0.15625 -0.25q0 -0.125 -0.125 -0.1875q-0.109375 -0.0625 -0.3125 -0.09375q-0.1875 -0.03125 -0.421875 -0.0625q-0.234375 -0.03125 -0.46875 -0.09375q-0.21875 -0.0625 -0.421875 -0.171875q-0.1875 -0.109375 -0.3125 -0.296875q-0.109375 -0.203125 -0.109375 -0.5q0 -0.34375 0.1875 -0.59375q0.203125 -0.265625 0.578125 -0.421875q0.375 -0.15625 0.890625 -0.15625q0.375 0 0.75 0.09375q0.375 0.078125 0.625 0.21875l-0.34375 0.75q-0.25 -0.15625 -0.515625 -0.203125q-0.265625 -0.0625 -0.515625 -0.0625q-0.34375 0 -0.5 0.09375q-0.15625 0.09375 -0.15625 0.234375q0 0.125 0.109375 0.203125q0.109375 0.0625 0.296875 0.109375q0.203125 0.03125 0.4375 0.0625q0.234375 0.03125 0.453125 0.09375q0.234375 0.0625 0.421875 0.171875q0.203125 0.109375 0.3125 0.296875q0.125 0.1875 0.125 0.5q0 0.328125 -0.203125 0.59375q-0.203125 0.25 -0.578125 0.390625q-0.375 0.140625 -0.90625 0.140625zm3.5344238 0q-0.46875 0 -0.890625 -0.109375q-0.421875 -0.109375 -0.65625 -0.265625l0.34375 -0.75q0.234375 0.15625 0.5625 0.25q0.34375 0.09375 0.671875 0.09375q0.359375 0 0.515625 -0.078125q0.15625 -0.09375 0.15625 -0.25q0 -0.125 -0.125 -0.1875q-0.109375 -0.0625 -0.3125 -0.09375q-0.1875 -0.03125 -0.421875 -0.0625q-0.234375 -0.03125 -0.46875 -0.09375q-0.21875 -0.0625 -0.421875 -0.171875q-0.1875 -0.109375 -0.3125 -0.296875q-0.109375 -0.203125 -0.109375 -0.5q0 -0.34375 0.1875 -0.59375q0.203125 -0.265625 0.578125 -0.421875q0.375 -0.15625 0.890625 -0.15625q0.375 0 0.75 0.09375q0.375 0.078125 0.625 0.21875l-0.34375 0.75q-0.25 -0.15625 -0.515625 -0.203125q-0.265625 -0.0625 -0.515625 -0.0625q-0.34375 0 -0.5 0.09375q-0.15625 0.09375 -0.15625 0.234375q0 0.125 0.109375 0.203125q0.109375 0.0625 0.296875 0.109375q0.203125 0.03125 0.4375 0.0625q0.234375 0.03125 0.453125 0.09375q0.234375 0.0625 0.421875 0.171875q0.203125 0.109375 0.3125 0.296875q0.125 0.1875 0.125 0.5q0 0.328125 -0.203125 0.59375q-0.203125 0.25 -0.578125 0.390625q-0.375 0.140625 -0.90625 0.140625zm2.7219238 0q-0.265625 0 -0.46875 -0.171875q-0.1875 -0.1875 -0.1875 -0.46875q0 -0.296875 0.1875 -0.46875q0.203125 -0.171875 0.46875 -0.171875q0.265625 0 0.453125 0.171875q0.1875 0.171875 0.1875 0.46875q0 0.28125 -0.1875 0.46875q-0.1875 0.171875 -0.453125 0.171875z" fill-rule="nonzero"/><g filter="url(#shadowFilter-g33b37f11d99_0_0.1)"><use xlink:href="#g33b37f11d99_0_0.1" transform="matrix(1.0 0.0 0.0 1.0 0.0 2.0)"/></g><defs><filter id="shadowFilter-g33b37f11d99_0_0.1" filterUnits="userSpaceOnUse"><feGaussianBlur in="SourceAlpha" stdDeviation="2.0" result="blur"/><feComponentTransfer in="blur" color-interpolation-filters="sRGB"><feFuncR type="linear" slope="0" intercept="0.0"/><feFuncG type="linear" slope="0" intercept="0.0"/><feFuncB type="linear" slope="0" intercept="0.0"/><feFuncA type="linear" slope="0.5" intercept="0"/></feComponentTransfer></filter></defs><g id="g33b37f11d99_0_0.1"><path fill="#000000" fill-opacity="0.0" d="m7.800537 310.28348l33.228348 0l0 15.716522l-33.228348 0z" fill-rule="evenodd"/><path fill="#059b9a" d="m11.456787 319.68347l0 -3.5l0.46875 0l0 3.5l-0.46875 0zm0.25 -4.265625q-0.15625 0 -0.25 -0.09375q-0.09375 -0.109375 -0.09375 -0.25q0 -0.140625 0.09375 -0.234375q0.09375 -0.09375 0.25 -0.09375q0.140625 0 0.234375 0.09375q0.109375 0.09375 0.109375 0.234375q0 0.140625 -0.09375 0.25q-0.09375 0.09375 -0.25 0.09375zm1.5405121 4.265625l0 -3.5l0.453125 0l0 0.96875l-0.078125 -0.1875q0.171875 -0.375 0.53125 -0.59375q0.375 -0.21875 0.875 -0.21875q0.4375 0 0.75 0.171875q0.328125 0.15625 0.5 0.5q0.1875 0.328125 0.1875 0.828125l0 2.03125l-0.46875 0l0 -1.984375q0 -0.546875 -0.28125 -0.828125q-0.265625 -0.296875 -0.765625 -0.296875q-0.375 0 -0.65625 0.15625q-0.265625 0.15625 -0.421875 0.4375q-0.15625 0.28125 -0.15625 0.671875l0 1.84375l-0.46875 0zm4.4995728 0l0 -3.5l0.46875 0l0 3.5l-0.46875 0zm0.25 -4.265625q-0.15625 0 -0.25 -0.09375q-0.09375 -0.109375 -0.09375 -0.25q0 -0.140625 0.09375 -0.234375q0.09375 -0.09375 0.25 -0.09375q0.140625 0 0.234375 0.09375q0.109375 0.09375 0.109375 0.234375q0 0.140625 -0.09375 0.25q-0.09375 0.09375 -0.25 0.09375zm2.5898895 4.296875q-0.5 0 -0.765625 -0.265625q-0.265625 -0.265625 -0.265625 -0.75l0 -3.28125l0.484375 0l0 3.25q0 0.3125 0.15625 0.484375q0.15625 0.15625 0.4375 0.15625q0.3125 0 0.53125 -0.171875l0.15625 0.328125q-0.140625 0.125 -0.34375 0.1875q-0.1875 0.0625 -0.390625 0.0625zm-1.65625 -3.140625l0 -0.390625l2.171875 0l0 0.390625l-2.171875 0zm3.2492828 3.109375l0 -3.5l0.46875 0l0 3.5l-0.46875 0zm0.25 -4.265625q-0.15625 0 -0.25 -0.09375q-0.09375 -0.109375 -0.09375 -0.25q0 -0.140625 0.09375 -0.234375q0.09375 -0.09375 0.25 -0.09375q0.140625 0 0.234375 0.09375q0.109375 0.09375 0.109375 0.234375q0 0.140625 -0.09375 0.25q-0.09375 0.09375 -0.25 0.09375zm3.728012 4.265625l0 -0.765625l-0.015625 -0.140625l0 -1.28125q0 -0.453125 -0.25 -0.6875q-0.25 -0.234375 -0.734375 -0.234375q-0.34375 0 -0.65625 0.109375q-0.296875 0.109375 -0.515625 0.296875l-0.21875 -0.359375q0.265625 -0.21875 0.640625 -0.34375q0.375 -0.125 0.796875 -0.125q0.671875 0 1.03125 0.34375q0.375 0.328125 0.375 1.015625l0 2.171875l-0.453125 0zm-1.203125 0.03125q-0.390625 0 -0.6875 -0.125q-0.28125 -0.125 -0.4375 -0.359375q-0.15625 -0.234375 -0.15625 -0.53125q0 -0.28125 0.125 -0.5q0.140625 -0.21875 0.4375 -0.359375q0.296875 -0.140625 0.796875 -0.140625l1.203125 0l0 0.359375l-1.1875 0q-0.515625 0 -0.71875 0.1875q-0.1875 0.171875 -0.1875 0.4375q0 0.296875 0.234375 0.484375q0.234375 0.171875 0.65625 0.171875q0.390625 0 0.6875 -0.171875q0.296875 -0.1875 0.421875 -0.53125l0.109375 0.328125q-0.140625 0.34375 -0.46875 0.546875q-0.328125 0.203125 -0.828125 0.203125zm4.0521393 0q-0.5 0 -0.765625 -0.265625q-0.265625 -0.265625 -0.265625 -0.75l0 -3.28125l0.484375 0l0 3.25q0 0.3125 0.15625 0.484375q0.15625 0.15625 0.4375 0.15625q0.3125 0 0.53125 -0.171875l0.15625 0.328125q-0.140625 0.125 -0.34375 0.1875q-0.1875 0.0625 -0.390625 0.0625zm-1.65625 -3.140625l0 -0.390625l2.171875 0l0 0.390625l-2.171875 0zm4.6069946 3.140625q-0.546875 0 -0.96875 -0.21875q-0.40625 -0.234375 -0.640625 -0.640625q-0.21875 -0.40625 -0.21875 -0.921875q0 -0.515625 0.21875 -0.90625q0.21875 -0.40625 0.609375 -0.640625q0.390625 -0.234375 0.875 -0.234375q0.5 0 0.875 0.234375q0.390625 0.21875 0.609375 0.625q0.21875 0.390625 0.21875 0.921875q0 0.03125 -0.015625 0.078125q0 0.03125 0 0.0625l-3.03125 0l0 -0.34375l2.78125 0l-0.1875 0.140625q0 -0.390625 -0.171875 -0.671875q-0.15625 -0.296875 -0.4375 -0.46875q-0.265625 -0.171875 -0.640625 -0.171875q-0.359375 0 -0.65625 0.171875q-0.28125 0.171875 -0.4375 0.46875q-0.15625 0.296875 -0.15625 0.6875l0 0.0625q0 0.40625 0.171875 0.71875q0.1875 0.296875 0.5 0.46875q0.3125 0.15625 0.71875 0.15625q0.3125 0 0.59375 -0.109375q0.28125 -0.109375 0.484375 -0.34375l0.265625 0.296875q-0.234375 0.28125 -0.59375 0.4375q-0.34375 0.140625 -0.765625 0.140625zm2.5828247 0q-0.140625 0 -0.25 -0.109375q-0.09375 -0.109375 -0.09375 -0.25q0 -0.171875 0.09375 -0.265625q0.109375 -0.09375 0.25 -0.09375q0.15625 0 0.25 0.09375q0.109375 0.09375 0.109375 0.265625q0 0.140625 -0.109375 0.25q-0.09375 0.109375 -0.25 0.109375z" fill-rule="nonzero"/></g><path fill="#000000" fill-opacity="0.0" d="m271.07578 308.60855l3.4252014 -6.850403l8.960632 0l3.425171 6.850403l-3.425171 6.850403l-8.960632 0z" fill-rule="evenodd"/><path stroke="#059b9a" stroke-width="4.0" stroke-linejoin="round" stroke-linecap="butt" d="m271.07578 308.60855l3.4252014 -6.850403l8.960632 0l3.425171 6.850403l-3.425171 6.850403l-8.960632 0z" fill-rule="evenodd"/><path fill="#000000" fill-opacity="0.0" d="m418.66238 292.1886l3.4252014 -6.8503723l8.960632 0l3.4252014 6.8503723l-3.4252014 6.850403l-8.960632 0z" fill-rule="evenodd"/><path stroke="#059b9a" stroke-width="4.0" stroke-linejoin="round" stroke-linecap="butt" d="m418.66238 292.1886l3.4252014 -6.8503723l8.960632 0l3.4252014 6.8503723l-3.4252014 6.850403l-8.960632 0z" fill-rule="evenodd"/><path fill="#000000" fill-opacity="0.0" d="m597.4524 300.76077l3.425232 -6.8503723l8.960632 0l3.425171 6.8503723l-3.425171 6.850403l-8.960632 0z" fill-rule="evenodd"/><path stroke="#059b9a" stroke-width="4.0" stroke-linejoin="round" stroke-linecap="butt" d="m597.4524 300.76077l3.425232 -6.8503723l8.960632 0l3.425171 6.8503723l-3.425171 6.850403l-8.960632 0z" fill-rule="evenodd"/><path fill="#000000" fill-opacity="0.0" d="m683.7648 322.04688l3.425171 -6.850403l8.960632 0l3.425171 6.850403l-3.425171 6.850403l-8.960632 0z" fill-rule="evenodd"/><path stroke="#059b9a" stroke-width="4.0" stroke-linejoin="round" stroke-linecap="butt" d="m683.7648 322.04688l3.425171 -6.850403l8.960632 0l3.425171 6.850403l-3.425171 6.850403l-8.960632 0z" fill-rule="evenodd"/></g></svg>